<svg xmlns="http://www.w3.org/2000/svg" xmlns:xlink="http://www.w3.org/1999/xlink" width="500" zoomAndPan="magnify" viewBox="0 0 375 374.999991" height="500" preserveAspectRatio="xMidYMid meet" version="1.0"><defs><g/></defs><g fill="#ff3131" fill-opacity="1"><g transform="translate(6.992364, 221.396191)"><g><path d="M 72.703125 -55.578125 C 78.640625 -49.109375 81.609375 -41.175781 81.609375 -31.78125 C 81.609375 -22.382812 78.640625 -14.425781 72.703125 -7.90625 C 66.765625 -1.394531 59.222656 1.859375 50.078125 1.859375 C 41.671875 1.859375 34.742188 -0.78125 29.296875 -6.0625 L 29.296875 32.140625 L 7.421875 32.140625 L 7.421875 -63.421875 L 29.0625 -63.421875 L 29.0625 -56.25 L 29.296875 -56.25 C 34.742188 -62.269531 41.671875 -65.28125 50.078125 -65.28125 C 59.222656 -65.28125 66.765625 -62.046875 72.703125 -55.578125 Z M 54.09375 -21.015625 C 56.9375 -23.816406 58.359375 -27.398438 58.359375 -31.765625 C 58.359375 -36.140625 57 -39.707031 54.28125 -42.46875 C 51.5625 -45.226562 47.972656 -46.609375 43.515625 -46.609375 C 39.234375 -46.609375 35.710938 -45.207031 32.953125 -42.40625 C 30.191406 -39.601562 28.8125 -36.0625 28.8125 -31.78125 C 28.8125 -27.40625 30.234375 -23.816406 33.078125 -21.015625 C 35.921875 -18.210938 39.398438 -16.8125 43.515625 -16.8125 C 47.722656 -16.8125 51.25 -18.210938 54.09375 -21.015625 Z M 54.09375 -21.015625 "/></g></g></g><g fill="#ff3131" fill-opacity="1"><g transform="translate(79.809994, 221.396191)"><g><path d="M 13.40625 -7.53125 C 6.363281 -13.800781 2.84375 -21.835938 2.84375 -31.640625 C 2.84375 -41.453125 6.507812 -49.507812 13.84375 -55.8125 C 21.1875 -62.125 30.253906 -65.28125 41.046875 -65.28125 C 51.679688 -65.28125 60.644531 -62.101562 67.9375 -55.75 C 75.226562 -49.40625 78.875 -41.367188 78.875 -31.640625 C 78.875 -21.921875 75.3125 -13.90625 68.1875 -7.59375 C 61.0625 -1.289062 52.015625 1.859375 41.046875 1.859375 C 29.671875 1.859375 20.457031 -1.269531 13.40625 -7.53125 Z M 30.359375 -42.40625 C 27.515625 -39.601562 26.09375 -36.015625 26.09375 -31.640625 C 26.09375 -27.273438 27.453125 -23.710938 30.171875 -20.953125 C 32.890625 -18.191406 36.472656 -16.8125 40.921875 -16.8125 C 45.210938 -16.8125 48.738281 -18.210938 51.5 -21.015625 C 54.257812 -23.816406 55.640625 -27.363281 55.640625 -31.65625 C 55.640625 -36.019531 54.21875 -39.601562 51.375 -42.40625 C 48.53125 -45.207031 45.046875 -46.609375 40.921875 -46.609375 C 36.722656 -46.609375 33.203125 -45.207031 30.359375 -42.40625 Z M 30.359375 -42.40625 "/></g></g></g><g fill="#ff3131" fill-opacity="1"><g transform="translate(149.907767, 221.396191)"><g><path d="M 71.59375 -28.6875 L 25.59375 -28.6875 C 25.59375 -24.238281 27.035156 -20.941406 29.921875 -18.796875 C 32.804688 -16.648438 35.9375 -15.578125 39.3125 -15.578125 C 42.863281 -15.578125 45.664062 -16.050781 47.71875 -17 C 49.78125 -17.945312 52.128906 -19.820312 54.765625 -22.625 L 70.59375 -14.71875 C 64 -3.664062 53.035156 1.859375 37.703125 1.859375 C 28.148438 1.859375 19.953125 -1.414062 13.109375 -7.96875 C 6.265625 -14.519531 2.84375 -22.410156 2.84375 -31.640625 C 2.84375 -40.878906 6.265625 -48.796875 13.109375 -55.390625 C 19.953125 -61.984375 28.148438 -65.28125 37.703125 -65.28125 C 47.765625 -65.28125 55.945312 -62.375 62.25 -56.5625 C 68.5625 -50.75 71.71875 -42.445312 71.71875 -31.65625 C 71.71875 -30.164062 71.675781 -29.175781 71.59375 -28.6875 Z M 26.21875 -40.796875 L 50.328125 -40.796875 C 49.828125 -44.097656 48.523438 -46.632812 46.421875 -48.40625 C 44.328125 -50.175781 41.628906 -51.0625 38.328125 -51.0625 C 34.703125 -51.0625 31.816406 -50.113281 29.671875 -48.21875 C 27.523438 -46.320312 26.375 -43.847656 26.21875 -40.796875 Z M 26.21875 -40.796875 "/></g></g></g><g fill="#ff3131" fill-opacity="1"><g transform="translate(212.834976, 221.396191)"><g><path d="M 11.125 -63.421875 L 11.125 -87.046875 L 33.015625 -87.046875 L 33.015625 -63.421875 L 46.359375 -63.421875 L 46.359375 -46.734375 L 33.015625 -46.734375 L 33.015625 -26.578125 C 33.015625 -20.722656 34.660156 -17.796875 37.953125 -17.796875 C 38.773438 -17.796875 39.640625 -17.960938 40.546875 -18.296875 C 41.460938 -18.628906 42.164062 -18.957031 42.65625 -19.28125 L 43.390625 -19.78125 L 48.84375 -2.109375 C 44.144531 0.535156 38.785156 1.859375 32.765625 1.859375 C 28.640625 1.859375 25.09375 1.140625 22.125 -0.296875 C 19.164062 -1.742188 16.921875 -3.679688 15.390625 -6.109375 C 13.867188 -8.546875 12.773438 -11.101562 12.109375 -13.78125 C 11.453125 -16.457031 11.125 -19.320312 11.125 -22.375 L 11.125 -46.734375 L 1.984375 -46.734375 L 1.984375 -63.421875 Z M 11.125 -63.421875 "/></g></g></g><g fill="#ff3131" fill-opacity="1"><g transform="translate(250.047084, 221.396191)"><g><path d="M 9.515625 -98.78125 C 12.078125 -101.34375 15.128906 -102.625 18.671875 -102.625 C 22.210938 -102.625 25.257812 -101.34375 27.8125 -98.78125 C 30.375 -96.226562 31.65625 -93.179688 31.65625 -89.640625 C 31.65625 -86.097656 30.375 -83.046875 27.8125 -80.484375 C 25.257812 -77.929688 22.210938 -76.65625 18.671875 -76.65625 C 15.128906 -76.65625 12.078125 -77.929688 9.515625 -80.484375 C 6.960938 -83.046875 5.6875 -86.097656 5.6875 -89.640625 C 5.6875 -93.179688 6.960938 -96.226562 9.515625 -98.78125 Z M 7.421875 -63.421875 L 7.421875 0 L 29.296875 0 L 29.296875 -63.421875 Z M 7.421875 -63.421875 "/></g></g></g><g fill="#ff3131" fill-opacity="1"><g transform="translate(275.761579, 221.396191)"><g><path d="M 41.171875 -47.359375 C 37.046875 -47.359375 33.5 -45.832031 30.53125 -42.78125 C 27.570312 -39.726562 26.09375 -36.0625 26.09375 -31.78125 C 26.09375 -27.40625 27.570312 -23.691406 30.53125 -20.640625 C 33.5 -17.597656 37.046875 -16.078125 41.171875 -16.078125 C 43.148438 -16.078125 45.023438 -16.320312 46.796875 -16.8125 C 48.566406 -17.3125 49.863281 -17.804688 50.6875 -18.296875 L 51.8125 -19.046875 L 59.21875 -3.828125 C 58.644531 -3.421875 57.84375 -2.90625 56.8125 -2.28125 C 55.78125 -1.664062 53.429688 -0.820312 49.765625 0.25 C 46.097656 1.320312 42.160156 1.859375 37.953125 1.859375 C 28.640625 1.859375 20.457031 -1.414062 13.40625 -7.96875 C 6.363281 -14.519531 2.84375 -22.375 2.84375 -31.53125 C 2.84375 -40.757812 6.363281 -48.691406 13.40625 -55.328125 C 20.457031 -61.960938 28.640625 -65.28125 37.953125 -65.28125 C 42.160156 -65.28125 46.035156 -64.785156 49.578125 -63.796875 C 53.117188 -62.804688 55.632812 -61.816406 57.125 -60.828125 L 59.21875 -59.34375 L 51.8125 -44.390625 C 49.082031 -46.367188 45.535156 -47.359375 41.171875 -47.359375 Z M 41.171875 -47.359375 "/></g></g></g><g fill="#ff3131" fill-opacity="1"><g transform="translate(324.842176, 221.396191)"><g><path d="M 21.515625 -26.453125 C 25.472656 -26.453125 28.832031 -25.070312 31.59375 -22.3125 C 34.351562 -19.550781 35.734375 -16.191406 35.734375 -12.234375 C 35.734375 -8.359375 34.351562 -5.039062 31.59375 -2.28125 C 28.832031 0.476562 25.472656 1.859375 21.515625 1.859375 C 17.640625 1.859375 14.320312 0.476562 11.5625 -2.28125 C 8.800781 -5.039062 7.421875 -8.359375 7.421875 -12.234375 C 7.421875 -16.191406 8.800781 -19.550781 11.5625 -22.3125 C 14.320312 -25.070312 17.640625 -26.453125 21.515625 -26.453125 Z M 21.515625 -26.453125 "/></g></g></g><g fill="#ff3131" fill-opacity="1"><g transform="translate(103.089191, 254.314246)"><g><path d="M 14.34375 -2.84375 C 14.769531 -2.84375 15.117188 -2.707031 15.390625 -2.4375 C 15.671875 -2.175781 15.8125 -1.832031 15.8125 -1.40625 C 15.8125 -1 15.671875 -0.660156 15.390625 -0.390625 C 15.117188 -0.128906 14.769531 0 14.34375 0 L 4 0 C 3.570312 0 3.222656 -0.140625 2.953125 -0.421875 C 2.679688 -0.710938 2.546875 -1.0625 2.546875 -1.46875 L 2.546875 -19.953125 C 2.546875 -20.359375 2.6875 -20.703125 2.96875 -20.984375 C 3.25 -21.273438 3.613281 -21.421875 4.0625 -21.421875 C 4.476562 -21.421875 4.832031 -21.273438 5.125 -20.984375 C 5.414062 -20.703125 5.5625 -20.359375 5.5625 -19.953125 L 5.5625 -2.84375 Z M 14.34375 -2.84375 "/></g></g></g><g fill="#ff3131" fill-opacity="1"><g transform="translate(139.860234, 254.314246)"><g><path d="M 22 -10.703125 C 22 -8.648438 21.550781 -6.785156 20.65625 -5.109375 C 19.769531 -3.429688 18.539062 -2.109375 16.96875 -1.140625 C 15.40625 -0.171875 13.632812 0.3125 11.65625 0.3125 C 9.675781 0.3125 7.898438 -0.171875 6.328125 -1.140625 C 4.765625 -2.109375 3.535156 -3.429688 2.640625 -5.109375 C 1.753906 -6.785156 1.3125 -8.648438 1.3125 -10.703125 C 1.3125 -12.765625 1.753906 -14.628906 2.640625 -16.296875 C 3.535156 -17.972656 4.765625 -19.296875 6.328125 -20.265625 C 7.898438 -21.234375 9.675781 -21.71875 11.65625 -21.71875 C 13.632812 -21.71875 15.40625 -21.234375 16.96875 -20.265625 C 18.539062 -19.296875 19.769531 -17.972656 20.65625 -16.296875 C 21.550781 -14.628906 22 -12.765625 22 -10.703125 Z M 18.84375 -10.703125 C 18.84375 -12.234375 18.535156 -13.613281 17.921875 -14.84375 C 17.316406 -16.082031 16.46875 -17.050781 15.375 -17.75 C 14.28125 -18.457031 13.039062 -18.8125 11.65625 -18.8125 C 10.269531 -18.8125 9.03125 -18.460938 7.9375 -17.765625 C 6.84375 -17.078125 5.988281 -16.113281 5.375 -14.875 C 4.769531 -13.644531 4.46875 -12.253906 4.46875 -10.703125 C 4.46875 -9.171875 4.769531 -7.789062 5.375 -6.5625 C 5.988281 -5.332031 6.84375 -4.363281 7.9375 -3.65625 C 9.03125 -2.945312 10.269531 -2.59375 11.65625 -2.59375 C 13.039062 -2.59375 14.28125 -2.945312 15.375 -3.65625 C 16.46875 -4.363281 17.316406 -5.332031 17.921875 -6.5625 C 18.535156 -7.789062 18.84375 -9.171875 18.84375 -10.703125 Z M 18.84375 -10.703125 "/></g></g></g><g fill="#ff3131" fill-opacity="1"><g transform="translate(183.114699, 254.314246)"><g><path d="M 18.265625 -11.265625 C 18.671875 -11.265625 19.007812 -11.117188 19.28125 -10.828125 C 19.5625 -10.546875 19.703125 -10.203125 19.703125 -9.796875 L 19.703125 -2.90625 C 19.703125 -2.351562 19.457031 -1.925781 18.96875 -1.625 C 18.03125 -1.007812 17 -0.53125 15.875 -0.1875 C 14.757812 0.144531 13.609375 0.3125 12.421875 0.3125 C 10.378906 0.3125 8.503906 -0.175781 6.796875 -1.15625 C 5.097656 -2.132812 3.757812 -3.460938 2.78125 -5.140625 C 1.800781 -6.828125 1.3125 -8.679688 1.3125 -10.703125 C 1.3125 -12.722656 1.800781 -14.570312 2.78125 -16.25 C 3.757812 -17.9375 5.097656 -19.269531 6.796875 -20.25 C 8.503906 -21.226562 10.378906 -21.71875 12.421875 -21.71875 C 13.441406 -21.71875 14.425781 -21.601562 15.375 -21.375 C 16.320312 -21.15625 17.171875 -20.820312 17.921875 -20.375 C 18.171875 -20.226562 18.351562 -20.050781 18.46875 -19.84375 C 18.59375 -19.644531 18.65625 -19.425781 18.65625 -19.1875 C 18.65625 -18.78125 18.519531 -18.425781 18.25 -18.125 C 17.976562 -17.832031 17.644531 -17.6875 17.25 -17.6875 C 16.945312 -17.6875 16.679688 -17.753906 16.453125 -17.890625 C 15.128906 -18.503906 13.785156 -18.8125 12.421875 -18.8125 C 10.953125 -18.8125 9.609375 -18.453125 8.390625 -17.734375 C 7.179688 -17.023438 6.222656 -16.046875 5.515625 -14.796875 C 4.816406 -13.554688 4.46875 -12.191406 4.46875 -10.703125 C 4.46875 -9.210938 4.816406 -7.847656 5.515625 -6.609375 C 6.222656 -5.378906 7.179688 -4.398438 8.390625 -3.671875 C 9.609375 -2.953125 10.953125 -2.59375 12.421875 -2.59375 C 13.117188 -2.59375 13.847656 -2.675781 14.609375 -2.84375 C 15.367188 -3.007812 16.023438 -3.222656 16.578125 -3.484375 L 16.578125 -8.359375 L 12.875 -8.359375 C 12.46875 -8.359375 12.117188 -8.492188 11.828125 -8.765625 C 11.546875 -9.035156 11.40625 -9.378906 11.40625 -9.796875 C 11.40625 -10.222656 11.546875 -10.570312 11.828125 -10.84375 C 12.117188 -11.125 12.46875 -11.265625 12.875 -11.265625 Z M 18.265625 -11.265625 "/></g></g></g><g fill="#ff3131" fill-opacity="1"><g transform="translate(224.320166, 254.314246)"><g><path d="M 5.5625 -1.5 C 5.5625 -1.070312 5.410156 -0.710938 5.109375 -0.421875 C 4.804688 -0.140625 4.445312 0 4.03125 0 C 3.582031 0 3.222656 -0.140625 2.953125 -0.421875 C 2.679688 -0.710938 2.546875 -1.070312 2.546875 -1.5 L 2.546875 -19.953125 C 2.546875 -20.359375 2.6875 -20.703125 2.96875 -20.984375 C 3.25 -21.273438 3.613281 -21.421875 4.0625 -21.421875 C 4.476562 -21.421875 4.832031 -21.273438 5.125 -20.984375 C 5.414062 -20.703125 5.5625 -20.359375 5.5625 -19.953125 Z M 5.5625 -1.5 "/></g></g></g><g fill="#ff3131" fill-opacity="1"><g transform="translate(252.375294, 254.314246)"><g><path d="M 17.8125 -20.15625 C 18.300781 -19.894531 18.546875 -19.488281 18.546875 -18.9375 C 18.546875 -18.570312 18.421875 -18.234375 18.171875 -17.921875 C 17.929688 -17.597656 17.59375 -17.4375 17.15625 -17.4375 C 16.875 -17.4375 16.601562 -17.507812 16.34375 -17.65625 C 15.070312 -18.363281 13.703125 -18.71875 12.234375 -18.71875 C 10.703125 -18.71875 9.347656 -18.378906 8.171875 -17.703125 C 7.003906 -17.035156 6.09375 -16.09375 5.4375 -14.875 C 4.789062 -13.664062 4.46875 -12.273438 4.46875 -10.703125 C 4.46875 -9.015625 4.800781 -7.554688 5.46875 -6.328125 C 6.144531 -5.109375 7.070312 -4.175781 8.25 -3.53125 C 9.4375 -2.882812 10.765625 -2.5625 12.234375 -2.5625 C 13.742188 -2.5625 15.113281 -2.929688 16.34375 -3.671875 C 16.582031 -3.796875 16.84375 -3.859375 17.125 -3.859375 C 17.582031 -3.859375 17.941406 -3.679688 18.203125 -3.328125 C 18.453125 -3.023438 18.578125 -2.703125 18.578125 -2.359375 C 18.578125 -2.109375 18.507812 -1.875 18.375 -1.65625 C 18.238281 -1.445312 18.0625 -1.28125 17.84375 -1.15625 C 17.039062 -0.707031 16.144531 -0.347656 15.15625 -0.078125 C 14.164062 0.179688 13.191406 0.3125 12.234375 0.3125 C 10.253906 0.3125 8.429688 -0.125 6.765625 -1 C 5.109375 -1.882812 3.785156 -3.160156 2.796875 -4.828125 C 1.804688 -6.503906 1.3125 -8.460938 1.3125 -10.703125 C 1.3125 -12.765625 1.785156 -14.625 2.734375 -16.28125 C 3.679688 -17.945312 4.984375 -19.253906 6.640625 -20.203125 C 8.304688 -21.148438 10.171875 -21.625 12.234375 -21.625 C 14.210938 -21.625 16.070312 -21.132812 17.8125 -20.15625 Z M 17.8125 -20.15625 "/></g></g></g></svg>